<?xml version="1.0" encoding="utf-8" standalone="no"?>
<!DOCTYPE svg PUBLIC "-//W3C//DTD SVG 1.1//EN"
  "http://www.w3.org/Graphics/SVG/1.1/DTD/svg11.dtd">
<svg xmlns:xlink="http://www.w3.org/1999/xlink" width="504pt" height="360pt" viewBox="0 0 504 360" xmlns="http://www.w3.org/2000/svg" version="1.1">
 <metadata>
  <rdf:RDF xmlns:dc="http://purl.org/dc/elements/1.1/" xmlns:cc="http://creativecommons.org/ns#" xmlns:rdf="http://www.w3.org/1999/02/22-rdf-syntax-ns#">
   <cc:Work>
    <dc:type rdf:resource="http://purl.org/dc/dcmitype/StillImage"/>
    <dc:date>2023-05-05T21:03:44.761798</dc:date>
    <dc:format>image/svg+xml</dc:format>
    <dc:creator>
     <cc:Agent>
      <dc:title>Matplotlib v3.7.1, https://matplotlib.org/</dc:title>
     </cc:Agent>
    </dc:creator>
   </cc:Work>
  </rdf:RDF>
 </metadata>
 <defs>
  <style type="text/css">*{stroke-linejoin: round; stroke-linecap: butt}</style>
 </defs>
 <g id="figure_1">
  <g id="patch_1">
   <path d="M 0 360 
L 504 360 
L 504 0 
L 0 0 
z
" style="fill: #ffffff"/>
  </g>
  <g id="axes_1">
   <g id="patch_2">
    <path d="M 63 320.4 
L 453.6 320.4 
L 453.6 43.2 
L 63 43.2 
z
" style="fill: #ffffff"/>
   </g>
   <g id="matplotlib.axis_1">
    <g id="xtick_1">
     <g id="line2d_1">
      <defs>
       <path id="m9b9da692f6" d="M 0 0 
L 0 3.5 
" style="stroke: #000000; stroke-width: 0.8"/>
      </defs>
      <g>
       <use xlink:href="#m9b9da692f6" x="80.754545" y="320.4" style="stroke: #000000; stroke-width: 0.8"/>
      </g>
     </g>
     <g id="text_1">
      <!-- 0 -->
      <g transform="translate(77.573295 334.998438) scale(0.1 -0.1)">
       <defs>
        <path id="DejaVuSans-30" d="M 2034 4250 
Q 1547 4250 1301 3770 
Q 1056 3291 1056 2328 
Q 1056 1369 1301 889 
Q 1547 409 2034 409 
Q 2525 409 2770 889 
Q 3016 1369 3016 2328 
Q 3016 3291 2770 3770 
Q 2525 4250 2034 4250 
z
M 2034 4750 
Q 2819 4750 3233 4129 
Q 3647 3509 3647 2328 
Q 3647 1150 3233 529 
Q 2819 -91 2034 -91 
Q 1250 -91 836 529 
Q 422 1150 422 2328 
Q 422 3509 836 4129 
Q 1250 4750 2034 4750 
z
" transform="scale(0.015625)"/>
       </defs>
       <use xlink:href="#DejaVuSans-30"/>
      </g>
     </g>
    </g>
    <g id="xtick_2">
     <g id="line2d_2">
      <g>
       <use xlink:href="#m9b9da692f6" x="132.468822" y="320.4" style="stroke: #000000; stroke-width: 0.8"/>
      </g>
     </g>
     <g id="text_2">
      <!-- 20 -->
      <g transform="translate(126.106322 334.998438) scale(0.1 -0.1)">
       <defs>
        <path id="DejaVuSans-32" d="M 1228 531 
L 3431 531 
L 3431 0 
L 469 0 
L 469 531 
Q 828 903 1448 1529 
Q 2069 2156 2228 2338 
Q 2531 2678 2651 2914 
Q 2772 3150 2772 3378 
Q 2772 3750 2511 3984 
Q 2250 4219 1831 4219 
Q 1534 4219 1204 4116 
Q 875 4013 500 3803 
L 500 4441 
Q 881 4594 1212 4672 
Q 1544 4750 1819 4750 
Q 2544 4750 2975 4387 
Q 3406 4025 3406 3419 
Q 3406 3131 3298 2873 
Q 3191 2616 2906 2266 
Q 2828 2175 2409 1742 
Q 1991 1309 1228 531 
z
" transform="scale(0.015625)"/>
       </defs>
       <use xlink:href="#DejaVuSans-32"/>
       <use xlink:href="#DejaVuSans-30" x="63.623047"/>
      </g>
     </g>
    </g>
    <g id="xtick_3">
     <g id="line2d_3">
      <g>
       <use xlink:href="#m9b9da692f6" x="184.183099" y="320.4" style="stroke: #000000; stroke-width: 0.8"/>
      </g>
     </g>
     <g id="text_3">
      <!-- 40 -->
      <g transform="translate(177.820599 334.998438) scale(0.1 -0.1)">
       <defs>
        <path id="DejaVuSans-34" d="M 2419 4116 
L 825 1625 
L 2419 1625 
L 2419 4116 
z
M 2253 4666 
L 3047 4666 
L 3047 1625 
L 3713 1625 
L 3713 1100 
L 3047 1100 
L 3047 0 
L 2419 0 
L 2419 1100 
L 313 1100 
L 313 1709 
L 2253 4666 
z
" transform="scale(0.015625)"/>
       </defs>
       <use xlink:href="#DejaVuSans-34"/>
       <use xlink:href="#DejaVuSans-30" x="63.623047"/>
      </g>
     </g>
    </g>
    <g id="xtick_4">
     <g id="line2d_4">
      <g>
       <use xlink:href="#m9b9da692f6" x="235.897375" y="320.4" style="stroke: #000000; stroke-width: 0.8"/>
      </g>
     </g>
     <g id="text_4">
      <!-- 60 -->
      <g transform="translate(229.534875 334.998438) scale(0.1 -0.1)">
       <defs>
        <path id="DejaVuSans-36" d="M 2113 2584 
Q 1688 2584 1439 2293 
Q 1191 2003 1191 1497 
Q 1191 994 1439 701 
Q 1688 409 2113 409 
Q 2538 409 2786 701 
Q 3034 994 3034 1497 
Q 3034 2003 2786 2293 
Q 2538 2584 2113 2584 
z
M 3366 4563 
L 3366 3988 
Q 3128 4100 2886 4159 
Q 2644 4219 2406 4219 
Q 1781 4219 1451 3797 
Q 1122 3375 1075 2522 
Q 1259 2794 1537 2939 
Q 1816 3084 2150 3084 
Q 2853 3084 3261 2657 
Q 3669 2231 3669 1497 
Q 3669 778 3244 343 
Q 2819 -91 2113 -91 
Q 1303 -91 875 529 
Q 447 1150 447 2328 
Q 447 3434 972 4092 
Q 1497 4750 2381 4750 
Q 2619 4750 2861 4703 
Q 3103 4656 3366 4563 
z
" transform="scale(0.015625)"/>
       </defs>
       <use xlink:href="#DejaVuSans-36"/>
       <use xlink:href="#DejaVuSans-30" x="63.623047"/>
      </g>
     </g>
    </g>
    <g id="xtick_5">
     <g id="line2d_5">
      <g>
       <use xlink:href="#m9b9da692f6" x="287.611652" y="320.4" style="stroke: #000000; stroke-width: 0.8"/>
      </g>
     </g>
     <g id="text_5">
      <!-- 80 -->
      <g transform="translate(281.249152 334.998438) scale(0.1 -0.1)">
       <defs>
        <path id="DejaVuSans-38" d="M 2034 2216 
Q 1584 2216 1326 1975 
Q 1069 1734 1069 1313 
Q 1069 891 1326 650 
Q 1584 409 2034 409 
Q 2484 409 2743 651 
Q 3003 894 3003 1313 
Q 3003 1734 2745 1975 
Q 2488 2216 2034 2216 
z
M 1403 2484 
Q 997 2584 770 2862 
Q 544 3141 544 3541 
Q 544 4100 942 4425 
Q 1341 4750 2034 4750 
Q 2731 4750 3128 4425 
Q 3525 4100 3525 3541 
Q 3525 3141 3298 2862 
Q 3072 2584 2669 2484 
Q 3125 2378 3379 2068 
Q 3634 1759 3634 1313 
Q 3634 634 3220 271 
Q 2806 -91 2034 -91 
Q 1263 -91 848 271 
Q 434 634 434 1313 
Q 434 1759 690 2068 
Q 947 2378 1403 2484 
z
M 1172 3481 
Q 1172 3119 1398 2916 
Q 1625 2713 2034 2713 
Q 2441 2713 2670 2916 
Q 2900 3119 2900 3481 
Q 2900 3844 2670 4047 
Q 2441 4250 2034 4250 
Q 1625 4250 1398 4047 
Q 1172 3844 1172 3481 
z
" transform="scale(0.015625)"/>
       </defs>
       <use xlink:href="#DejaVuSans-38"/>
       <use xlink:href="#DejaVuSans-30" x="63.623047"/>
      </g>
     </g>
    </g>
    <g id="xtick_6">
     <g id="line2d_6">
      <g>
       <use xlink:href="#m9b9da692f6" x="339.325929" y="320.4" style="stroke: #000000; stroke-width: 0.8"/>
      </g>
     </g>
     <g id="text_6">
      <!-- 100 -->
      <g transform="translate(329.782179 334.998438) scale(0.1 -0.1)">
       <defs>
        <path id="DejaVuSans-31" d="M 794 531 
L 1825 531 
L 1825 4091 
L 703 3866 
L 703 4441 
L 1819 4666 
L 2450 4666 
L 2450 531 
L 3481 531 
L 3481 0 
L 794 0 
L 794 531 
z
" transform="scale(0.015625)"/>
       </defs>
       <use xlink:href="#DejaVuSans-31"/>
       <use xlink:href="#DejaVuSans-30" x="63.623047"/>
       <use xlink:href="#DejaVuSans-30" x="127.246094"/>
      </g>
     </g>
    </g>
    <g id="xtick_7">
     <g id="line2d_7">
      <g>
       <use xlink:href="#m9b9da692f6" x="391.040205" y="320.4" style="stroke: #000000; stroke-width: 0.8"/>
      </g>
     </g>
     <g id="text_7">
      <!-- 120 -->
      <g transform="translate(381.496455 334.998438) scale(0.1 -0.1)">
       <use xlink:href="#DejaVuSans-31"/>
       <use xlink:href="#DejaVuSans-32" x="63.623047"/>
       <use xlink:href="#DejaVuSans-30" x="127.246094"/>
      </g>
     </g>
    </g>
    <g id="xtick_8">
     <g id="line2d_8">
      <g>
       <use xlink:href="#m9b9da692f6" x="442.754482" y="320.4" style="stroke: #000000; stroke-width: 0.8"/>
      </g>
     </g>
     <g id="text_8">
      <!-- 140 -->
      <g transform="translate(433.210732 334.998438) scale(0.1 -0.1)">
       <use xlink:href="#DejaVuSans-31"/>
       <use xlink:href="#DejaVuSans-34" x="63.623047"/>
       <use xlink:href="#DejaVuSans-30" x="127.246094"/>
      </g>
     </g>
    </g>
    <g id="text_9">
     <!-- Time -->
     <g transform="translate(246.066406 348.676562) scale(0.1 -0.1)">
      <defs>
       <path id="DejaVuSans-54" d="M -19 4666 
L 3928 4666 
L 3928 4134 
L 2272 4134 
L 2272 0 
L 1638 0 
L 1638 4134 
L -19 4134 
L -19 4666 
z
" transform="scale(0.015625)"/>
       <path id="DejaVuSans-69" d="M 603 3500 
L 1178 3500 
L 1178 0 
L 603 0 
L 603 3500 
z
M 603 4863 
L 1178 4863 
L 1178 4134 
L 603 4134 
L 603 4863 
z
" transform="scale(0.015625)"/>
       <path id="DejaVuSans-6d" d="M 3328 2828 
Q 3544 3216 3844 3400 
Q 4144 3584 4550 3584 
Q 5097 3584 5394 3201 
Q 5691 2819 5691 2113 
L 5691 0 
L 5113 0 
L 5113 2094 
Q 5113 2597 4934 2840 
Q 4756 3084 4391 3084 
Q 3944 3084 3684 2787 
Q 3425 2491 3425 1978 
L 3425 0 
L 2847 0 
L 2847 2094 
Q 2847 2600 2669 2842 
Q 2491 3084 2119 3084 
Q 1678 3084 1418 2786 
Q 1159 2488 1159 1978 
L 1159 0 
L 581 0 
L 581 3500 
L 1159 3500 
L 1159 2956 
Q 1356 3278 1631 3431 
Q 1906 3584 2284 3584 
Q 2666 3584 2933 3390 
Q 3200 3197 3328 2828 
z
" transform="scale(0.015625)"/>
       <path id="DejaVuSans-65" d="M 3597 1894 
L 3597 1613 
L 953 1613 
Q 991 1019 1311 708 
Q 1631 397 2203 397 
Q 2534 397 2845 478 
Q 3156 559 3463 722 
L 3463 178 
Q 3153 47 2828 -22 
Q 2503 -91 2169 -91 
Q 1331 -91 842 396 
Q 353 884 353 1716 
Q 353 2575 817 3079 
Q 1281 3584 2069 3584 
Q 2775 3584 3186 3129 
Q 3597 2675 3597 1894 
z
M 3022 2063 
Q 3016 2534 2758 2815 
Q 2500 3097 2075 3097 
Q 1594 3097 1305 2825 
Q 1016 2553 972 2059 
L 3022 2063 
z
" transform="scale(0.015625)"/>
      </defs>
      <use xlink:href="#DejaVuSans-54"/>
      <use xlink:href="#DejaVuSans-69" x="57.958984"/>
      <use xlink:href="#DejaVuSans-6d" x="85.742188"/>
      <use xlink:href="#DejaVuSans-65" x="183.154297"/>
     </g>
    </g>
   </g>
   <g id="matplotlib.axis_2">
    <g id="ytick_1">
     <g id="line2d_9">
      <defs>
       <path id="m397fc8964d" d="M 0 0 
L -3.5 0 
" style="stroke: #000000; stroke-width: 0.8"/>
      </defs>
      <g>
       <use xlink:href="#m397fc8964d" x="63" y="279.371376" style="stroke: #000000; stroke-width: 0.8"/>
      </g>
     </g>
     <g id="text_10">
      <!-- 800 -->
      <g transform="translate(36.9125 283.170595) scale(0.1 -0.1)">
       <use xlink:href="#DejaVuSans-38"/>
       <use xlink:href="#DejaVuSans-30" x="63.623047"/>
       <use xlink:href="#DejaVuSans-30" x="127.246094"/>
      </g>
     </g>
    </g>
    <g id="ytick_2">
     <g id="line2d_10">
      <g>
       <use xlink:href="#m397fc8964d" x="63" y="230.179672" style="stroke: #000000; stroke-width: 0.8"/>
      </g>
     </g>
     <g id="text_11">
      <!-- 1000 -->
      <g transform="translate(30.55 233.978891) scale(0.1 -0.1)">
       <use xlink:href="#DejaVuSans-31"/>
       <use xlink:href="#DejaVuSans-30" x="63.623047"/>
       <use xlink:href="#DejaVuSans-30" x="127.246094"/>
       <use xlink:href="#DejaVuSans-30" x="190.869141"/>
      </g>
     </g>
    </g>
    <g id="ytick_3">
     <g id="line2d_11">
      <g>
       <use xlink:href="#m397fc8964d" x="63" y="180.987968" style="stroke: #000000; stroke-width: 0.8"/>
      </g>
     </g>
     <g id="text_12">
      <!-- 1200 -->
      <g transform="translate(30.55 184.787187) scale(0.1 -0.1)">
       <use xlink:href="#DejaVuSans-31"/>
       <use xlink:href="#DejaVuSans-32" x="63.623047"/>
       <use xlink:href="#DejaVuSans-30" x="127.246094"/>
       <use xlink:href="#DejaVuSans-30" x="190.869141"/>
      </g>
     </g>
    </g>
    <g id="ytick_4">
     <g id="line2d_12">
      <g>
       <use xlink:href="#m397fc8964d" x="63" y="131.796264" style="stroke: #000000; stroke-width: 0.8"/>
      </g>
     </g>
     <g id="text_13">
      <!-- 1400 -->
      <g transform="translate(30.55 135.595483) scale(0.1 -0.1)">
       <use xlink:href="#DejaVuSans-31"/>
       <use xlink:href="#DejaVuSans-34" x="63.623047"/>
       <use xlink:href="#DejaVuSans-30" x="127.246094"/>
       <use xlink:href="#DejaVuSans-30" x="190.869141"/>
      </g>
     </g>
    </g>
    <g id="ytick_5">
     <g id="line2d_13">
      <g>
       <use xlink:href="#m397fc8964d" x="63" y="82.60456" style="stroke: #000000; stroke-width: 0.8"/>
      </g>
     </g>
     <g id="text_14">
      <!-- 1600 -->
      <g transform="translate(30.55 86.403778) scale(0.1 -0.1)">
       <use xlink:href="#DejaVuSans-31"/>
       <use xlink:href="#DejaVuSans-36" x="63.623047"/>
       <use xlink:href="#DejaVuSans-30" x="127.246094"/>
       <use xlink:href="#DejaVuSans-30" x="190.869141"/>
      </g>
     </g>
    </g>
    <g id="text_15">
     <!-- Best Path Length -->
     <g transform="translate(24.470312 224.279687) rotate(-90) scale(0.1 -0.1)">
      <defs>
       <path id="DejaVuSans-42" d="M 1259 2228 
L 1259 519 
L 2272 519 
Q 2781 519 3026 730 
Q 3272 941 3272 1375 
Q 3272 1813 3026 2020 
Q 2781 2228 2272 2228 
L 1259 2228 
z
M 1259 4147 
L 1259 2741 
L 2194 2741 
Q 2656 2741 2882 2914 
Q 3109 3088 3109 3444 
Q 3109 3797 2882 3972 
Q 2656 4147 2194 4147 
L 1259 4147 
z
M 628 4666 
L 2241 4666 
Q 2963 4666 3353 4366 
Q 3744 4066 3744 3513 
Q 3744 3084 3544 2831 
Q 3344 2578 2956 2516 
Q 3422 2416 3680 2098 
Q 3938 1781 3938 1306 
Q 3938 681 3513 340 
Q 3088 0 2303 0 
L 628 0 
L 628 4666 
z
" transform="scale(0.015625)"/>
       <path id="DejaVuSans-73" d="M 2834 3397 
L 2834 2853 
Q 2591 2978 2328 3040 
Q 2066 3103 1784 3103 
Q 1356 3103 1142 2972 
Q 928 2841 928 2578 
Q 928 2378 1081 2264 
Q 1234 2150 1697 2047 
L 1894 2003 
Q 2506 1872 2764 1633 
Q 3022 1394 3022 966 
Q 3022 478 2636 193 
Q 2250 -91 1575 -91 
Q 1294 -91 989 -36 
Q 684 19 347 128 
L 347 722 
Q 666 556 975 473 
Q 1284 391 1588 391 
Q 1994 391 2212 530 
Q 2431 669 2431 922 
Q 2431 1156 2273 1281 
Q 2116 1406 1581 1522 
L 1381 1569 
Q 847 1681 609 1914 
Q 372 2147 372 2553 
Q 372 3047 722 3315 
Q 1072 3584 1716 3584 
Q 2034 3584 2315 3537 
Q 2597 3491 2834 3397 
z
" transform="scale(0.015625)"/>
       <path id="DejaVuSans-74" d="M 1172 4494 
L 1172 3500 
L 2356 3500 
L 2356 3053 
L 1172 3053 
L 1172 1153 
Q 1172 725 1289 603 
Q 1406 481 1766 481 
L 2356 481 
L 2356 0 
L 1766 0 
Q 1100 0 847 248 
Q 594 497 594 1153 
L 594 3053 
L 172 3053 
L 172 3500 
L 594 3500 
L 594 4494 
L 1172 4494 
z
" transform="scale(0.015625)"/>
       <path id="DejaVuSans-20" transform="scale(0.015625)"/>
       <path id="DejaVuSans-50" d="M 1259 4147 
L 1259 2394 
L 2053 2394 
Q 2494 2394 2734 2622 
Q 2975 2850 2975 3272 
Q 2975 3691 2734 3919 
Q 2494 4147 2053 4147 
L 1259 4147 
z
M 628 4666 
L 2053 4666 
Q 2838 4666 3239 4311 
Q 3641 3956 3641 3272 
Q 3641 2581 3239 2228 
Q 2838 1875 2053 1875 
L 1259 1875 
L 1259 0 
L 628 0 
L 628 4666 
z
" transform="scale(0.015625)"/>
       <path id="DejaVuSans-61" d="M 2194 1759 
Q 1497 1759 1228 1600 
Q 959 1441 959 1056 
Q 959 750 1161 570 
Q 1363 391 1709 391 
Q 2188 391 2477 730 
Q 2766 1069 2766 1631 
L 2766 1759 
L 2194 1759 
z
M 3341 1997 
L 3341 0 
L 2766 0 
L 2766 531 
Q 2569 213 2275 61 
Q 1981 -91 1556 -91 
Q 1019 -91 701 211 
Q 384 513 384 1019 
Q 384 1609 779 1909 
Q 1175 2209 1959 2209 
L 2766 2209 
L 2766 2266 
Q 2766 2663 2505 2880 
Q 2244 3097 1772 3097 
Q 1472 3097 1187 3025 
Q 903 2953 641 2809 
L 641 3341 
Q 956 3463 1253 3523 
Q 1550 3584 1831 3584 
Q 2591 3584 2966 3190 
Q 3341 2797 3341 1997 
z
" transform="scale(0.015625)"/>
       <path id="DejaVuSans-68" d="M 3513 2113 
L 3513 0 
L 2938 0 
L 2938 2094 
Q 2938 2591 2744 2837 
Q 2550 3084 2163 3084 
Q 1697 3084 1428 2787 
Q 1159 2491 1159 1978 
L 1159 0 
L 581 0 
L 581 4863 
L 1159 4863 
L 1159 2956 
Q 1366 3272 1645 3428 
Q 1925 3584 2291 3584 
Q 2894 3584 3203 3211 
Q 3513 2838 3513 2113 
z
" transform="scale(0.015625)"/>
       <path id="DejaVuSans-4c" d="M 628 4666 
L 1259 4666 
L 1259 531 
L 3531 531 
L 3531 0 
L 628 0 
L 628 4666 
z
" transform="scale(0.015625)"/>
       <path id="DejaVuSans-6e" d="M 3513 2113 
L 3513 0 
L 2938 0 
L 2938 2094 
Q 2938 2591 2744 2837 
Q 2550 3084 2163 3084 
Q 1697 3084 1428 2787 
Q 1159 2491 1159 1978 
L 1159 0 
L 581 0 
L 581 3500 
L 1159 3500 
L 1159 2956 
Q 1366 3272 1645 3428 
Q 1925 3584 2291 3584 
Q 2894 3584 3203 3211 
Q 3513 2838 3513 2113 
z
" transform="scale(0.015625)"/>
       <path id="DejaVuSans-67" d="M 2906 1791 
Q 2906 2416 2648 2759 
Q 2391 3103 1925 3103 
Q 1463 3103 1205 2759 
Q 947 2416 947 1791 
Q 947 1169 1205 825 
Q 1463 481 1925 481 
Q 2391 481 2648 825 
Q 2906 1169 2906 1791 
z
M 3481 434 
Q 3481 -459 3084 -895 
Q 2688 -1331 1869 -1331 
Q 1566 -1331 1297 -1286 
Q 1028 -1241 775 -1147 
L 775 -588 
Q 1028 -725 1275 -790 
Q 1522 -856 1778 -856 
Q 2344 -856 2625 -561 
Q 2906 -266 2906 331 
L 2906 616 
Q 2728 306 2450 153 
Q 2172 0 1784 0 
Q 1141 0 747 490 
Q 353 981 353 1791 
Q 353 2603 747 3093 
Q 1141 3584 1784 3584 
Q 2172 3584 2450 3431 
Q 2728 3278 2906 2969 
L 2906 3500 
L 3481 3500 
L 3481 434 
z
" transform="scale(0.015625)"/>
      </defs>
      <use xlink:href="#DejaVuSans-42"/>
      <use xlink:href="#DejaVuSans-65" x="68.603516"/>
      <use xlink:href="#DejaVuSans-73" x="130.126953"/>
      <use xlink:href="#DejaVuSans-74" x="182.226562"/>
      <use xlink:href="#DejaVuSans-20" x="221.435547"/>
      <use xlink:href="#DejaVuSans-50" x="253.222656"/>
      <use xlink:href="#DejaVuSans-61" x="309.025391"/>
      <use xlink:href="#DejaVuSans-74" x="370.304688"/>
      <use xlink:href="#DejaVuSans-68" x="409.513672"/>
      <use xlink:href="#DejaVuSans-20" x="472.892578"/>
      <use xlink:href="#DejaVuSans-4c" x="504.679688"/>
      <use xlink:href="#DejaVuSans-65" x="558.642578"/>
      <use xlink:href="#DejaVuSans-6e" x="620.166016"/>
      <use xlink:href="#DejaVuSans-67" x="683.544922"/>
      <use xlink:href="#DejaVuSans-74" x="747.021484"/>
      <use xlink:href="#DejaVuSans-68" x="786.230469"/>
     </g>
    </g>
   </g>
   <g id="line2d_14">
    <path d="M 80.754545 75.166774 
L 83.483413 107.650516 
L 86.212281 77.894454 
L 88.941149 97.760524 
L 91.670017 115.371154 
L 94.398884 87.152333 
L 97.127752 74.485469 
L 99.85662 76.418703 
L 102.585488 83.199779 
L 105.314355 97.548999 
L 108.043223 73.978794 
L 110.772091 85.044468 
L 113.500959 79.822769 
L 116.229826 87.002298 
L 118.958694 84.938706 
L 121.687562 78.664304 
L 124.41643 84.476304 
L 127.145297 94.120338 
L 129.874165 87.499134 
L 132.603033 104.802316 
L 135.331901 91.067992 
L 138.060768 80.381095 
L 140.789636 77.299234 
L 143.518504 89.0044 
L 146.247372 71.265872 
L 148.97624 65.207913 
L 151.705107 88.332934 
L 154.433975 107.8645 
L 157.162843 97.3055 
L 159.891711 106.865908 
L 162.620578 90.177622 
L 165.349446 87.440104 
L 168.078314 81.123889 
L 170.807182 78.558542 
L 173.536049 105.54757 
L 176.264917 101.031772 
L 178.993785 65.729345 
L 181.722653 76.868807 
L 184.45152 80.484397 
L 187.180388 68.284855 
L 189.909256 91.766515 
L 192.638124 92.516688 
L 195.366991 82.538151 
L 198.095859 84.781293 
L 200.824727 73.127778 
L 203.553595 97.566216 
L 206.282463 86.45381 
L 209.01133 55.8 
L 211.740198 91.156537 
L 214.469066 70.968262 
L 217.197934 86.849804 
L 219.926801 89.59716 
L 222.655669 104.738367 
L 225.384537 102.81989 
L 228.113405 83.895842 
L 230.842272 96.491378 
L 233.57114 81.030425 
L 236.300008 79.75636 
L 239.028876 81.382146 
L 241.757743 91.604182 
L 244.486611 93.589067 
L 247.215479 117.385554 
L 249.944347 77.486163 
L 252.673215 86.493164 
L 255.402082 100.520178 
L 258.13095 98.505778 
L 260.859818 88.185358 
L 263.588686 103.990653 
L 266.317553 91.695187 
L 269.046421 98.274577 
L 271.775289 125.462832 
L 274.504157 103.444625 
L 277.233024 100.751379 
L 279.961892 103.518413 
L 282.69076 87.9394 
L 285.419628 126.695084 
L 288.148495 119.77873 
L 290.877363 118.261166 
L 293.606231 112.07531 
L 296.335099 118.413661 
L 299.063966 127.337036 
L 304.521702 108.090782 
L 307.25057 126.262197 
L 309.979438 139.027444 
L 312.708305 125.263605 
L 315.437173 128.350385 
L 318.166041 148.115612 
L 320.894909 154.387554 
L 323.623776 154.557265 
L 326.352644 170.278934 
L 329.081512 154.53021 
L 331.81038 147.350681 
L 334.539247 158.804969 
L 337.268115 180.060704 
L 339.996983 173.636268 
L 342.725851 183.541017 
L 345.454718 208.980507 
L 348.183586 178.786639 
L 350.912454 177.943001 
L 353.641322 195.56347 
L 356.37019 193.094046 
L 359.099057 199.998102 
L 361.827925 189.98759 
L 364.556793 204.058877 
L 367.285661 211.932009 
L 370.014528 226.647708 
L 372.743396 220.383144 
L 375.472264 225.695848 
L 378.201132 239.235373 
L 380.929999 216.305152 
L 383.658867 225.784393 
L 386.387735 230.30093 
L 389.116603 247.347823 
L 391.84547 257.311111 
L 394.574338 241.974859 
L 397.303206 246.989707 
L 400.032074 241.292078 
L 402.760941 243.563751 
L 405.489809 253.881465 
L 408.218677 254.738384 
L 410.947545 250.224062 
L 413.676413 253.590988 
L 416.40528 263.106877 
L 419.134148 256.757458 
L 421.863016 260.821677 
L 424.591884 271.414372 
L 427.320751 265.038389 
L 430.049619 265.55933 
L 432.778487 259.644273 
L 435.507355 256.35384 
L 435.507355 256.35384 
" clip-path="url(#p388d1ff023)" style="fill: none; stroke: #1f77b4; stroke-width: 0.7; stroke-linecap: square"/>
   </g>
   <g id="line2d_15">
    <path d="M 80.754545 113.25591 
L 81.644498 112.599201 
L 82.53445 121.581606 
L 83.424402 108.270331 
L 84.314354 113.088659 
L 85.204306 106.327259 
L 86.094258 104.315318 
L 86.984211 115.545784 
L 87.874163 114.975161 
L 88.764115 114.052816 
L 89.654067 113.907701 
L 90.544019 107.598864 
L 91.433971 116.969884 
L 92.323923 122.890106 
L 93.213876 119.434389 
L 94.103828 105.249961 
L 94.99378 112.326187 
L 95.883732 111.416141 
L 96.773684 103.479059 
L 97.663636 114.711985 
L 98.553589 101.954116 
L 99.443541 111.694074 
L 100.333493 103.766831 
L 101.223445 110.252757 
L 102.113397 100.574289 
L 103.003349 105.407374 
L 103.893301 112.269617 
L 104.783254 117.872552 
L 105.673206 107.156139 
L 106.563158 108.875389 
L 107.45311 105.119603 
L 108.343062 121.249562 
L 109.233014 100.114347 
L 110.122967 123.069655 
L 111.012919 116.591108 
L 111.902871 102.70429 
L 112.792823 110.892249 
L 113.682775 97.804796 
L 114.572727 105.55003 
L 115.462679 115.526108 
L 116.352632 113.772423 
L 117.242584 110.41263 
L 118.132536 105.759095 
L 119.022488 117.223221 
L 119.91244 116.217251 
L 120.802392 116.972344 
L 121.692344 124.498674 
L 122.582297 112.882054 
L 123.472249 108.476936 
L 124.362201 111.032445 
L 125.252153 108.646648 
L 126.142105 113.575657 
L 127.032057 107.606243 
L 127.92201 114.876777 
L 128.811962 104.595711 
L 129.701914 120.405925 
L 130.591866 112.080229 
L 131.481818 116.450912 
L 132.37177 107.035619 
L 133.261722 109.337791 
L 134.151675 104.667039 
L 135.041627 119.173672 
L 135.931579 114.178255 
L 137.711483 121.896433 
L 138.601435 121.148719 
L 139.491388 115.506431 
L 140.38134 115.641708 
L 141.271292 128.173295 
L 142.161244 125.411181 
L 143.051196 119.636075 
L 143.941148 126.001481 
L 144.8311 119.985336 
L 145.721053 139.782537 
L 146.611005 134.755145 
L 147.500957 125.226712 
L 148.390909 140.527791 
L 149.280861 148.359111 
L 150.170813 134.42802 
L 151.060766 143.602273 
L 151.950718 147.476119 
L 152.84067 157.063583 
L 153.730622 141.895321 
L 154.620574 169.764881 
L 155.510526 146.113509 
L 156.400478 157.840812 
L 157.290431 162.784578 
L 158.180383 161.244877 
L 159.070335 166.589556 
L 159.960287 175.87695 
L 161.740191 181.465127 
L 162.630144 176.319675 
L 163.520096 181.192114 
L 164.410048 182.899066 
L 165.3 202.14286 
L 167.079904 192.757083 
L 167.969856 206.638982 
L 168.859809 204.496683 
L 169.749761 211.164619 
L 170.639713 218.732763 
L 171.529665 217.291446 
L 172.419617 223.396136 
L 173.309569 232.397726 
L 174.199522 217.552162 
L 175.089474 225.351506 
L 175.979426 223.910189 
L 176.869378 231.923518 
L 177.75933 243.912274 
L 178.649282 239.484037 
L 179.539234 236.732007 
L 180.429187 251.162148 
L 181.319139 252.430556 
L 183.099043 249.612855 
L 183.988995 253.347981 
L 184.878947 254.585644 
L 185.7689 257.507385 
L 186.658852 257.430155 
L 187.548804 262.240365 
L 188.438756 264.174337 
L 190.21866 270.387741 
L 191.108612 266.307535 
L 191.998565 267.879948 
L 192.888517 270.055451 
L 193.778469 269.82794 
L 194.668421 279.880019 
L 195.558373 280.055879 
L 196.448325 279.530757 
L 197.338278 277.884557 
L 198.22823 275.669455 
L 199.118182 274.484426 
L 200.008134 279.876821 
L 200.898086 282.344523 
L 201.788038 282.002149 
L 202.67799 282.566869 
L 203.567943 280.869264 
L 204.457895 288.222932 
L 205.347847 288.202763 
L 206.237799 286.375783 
L 207.127751 287.667311 
L 208.017703 285.284957 
L 208.907656 288.582769 
L 209.797608 286.636007 
L 210.68756 285.360958 
L 211.577512 288.567519 
L 212.467464 287.904661 
L 213.357416 289.252268 
L 214.247368 285.724977 
L 215.137321 289.387299 
L 216.027273 291.468108 
L 216.917225 294.530292 
L 217.807177 288.687055 
L 218.697129 289.203322 
L 219.587081 292.227628 
L 220.477033 294.068628 
L 221.366986 294.792484 
L 222.256938 296.822625 
L 223.14689 294.878323 
L 224.036842 290.772784 
L 224.926794 292.981245 
L 225.816746 294.527094 
L 226.706699 295.2662 
L 227.596651 295.77558 
L 228.486603 294.790024 
L 229.376555 294.653517 
L 230.266507 295.978742 
L 231.156459 296.058678 
L 232.046411 299.499392 
L 232.936364 296.711452 
L 233.826316 297.42178 
L 234.716268 299.039695 
L 235.60622 295.543395 
L 236.496172 294.356153 
L 237.386124 295.020979 
L 238.276077 295.192166 
L 239.166029 296.551333 
L 240.055981 294.750179 
L 240.945933 296.604214 
L 241.835885 296.171573 
L 242.725837 296.049578 
L 243.615789 299.099955 
L 244.505742 298.676661 
L 245.395694 297.530248 
L 246.285646 296.763841 
L 247.175598 301.372858 
L 248.06555 298.93959 
L 248.955502 297.467774 
L 249.845455 297.795637 
L 250.735407 300.95891 
L 251.625359 300.336635 
L 252.515311 300.526023 
L 253.405263 298.003964 
L 254.295215 297.920092 
L 255.185167 305.325903 
L 256.07512 298.328875 
L 256.965072 298.122024 
L 257.855024 297.321429 
L 258.744976 301.487966 
L 259.634928 299.354768 
L 260.52488 299.206701 
L 261.414833 298.283373 
L 262.304785 298.558355 
L 263.194737 300.697948 
L 264.084689 300.641623 
L 264.974641 297.549433 
L 265.864593 302.417936 
L 266.754545 301.888387 
L 267.644498 300.438461 
L 268.53445 301.029992 
L 269.424402 300.063621 
L 270.314354 299.56703 
L 271.204306 300.739761 
L 272.094258 296.044412 
L 272.984211 301.554129 
L 273.874163 299.197601 
L 274.764115 299.597037 
L 275.654067 302.537963 
L 276.544019 299.190468 
L 277.433971 299.850375 
L 278.323923 299.066751 
L 279.213876 298.92926 
L 280.103828 303.559429 
L 280.99378 301.995379 
L 281.883732 300.910948 
L 282.773684 301.519449 
L 283.663636 300.701145 
L 284.553589 297.163524 
L 285.443541 298.166543 
L 286.333493 302.304303 
L 287.223445 301.313828 
L 288.113397 301.20413 
L 289.003349 300.415095 
L 289.893301 301.030238 
L 290.783254 298.7625 
L 291.673206 302.466144 
L 292.563158 298.847356 
L 293.45311 301.292921 
L 294.343062 302.116391 
L 295.233014 304.548428 
L 296.122967 303.84056 
L 297.012919 303.380125 
L 298.792823 299.160461 
L 299.682775 300.834947 
L 300.572727 301.122226 
L 301.462679 300.339586 
L 302.352632 303.06825 
L 303.242584 299.457579 
L 304.132536 303.419971 
L 305.022488 300.775179 
L 305.91244 306.37959 
L 306.802392 301.25283 
L 307.692344 300.107155 
L 308.582297 303.255178 
L 309.472249 301.036879 
L 310.362201 303.463997 
L 311.252153 299.542189 
L 312.142105 300.711229 
L 313.032057 302.090319 
L 313.92201 301.83403 
L 314.811962 299.073884 
L 315.701914 299.13316 
L 316.591866 302.206657 
L 317.481818 302.984132 
L 318.37177 307.8 
L 319.261722 300.868643 
L 320.151675 301.282837 
L 321.041627 305.436093 
L 321.931579 303.529668 
L 322.821531 297.272237 
L 323.711483 299.428802 
L 324.601435 305.957033 
L 325.491388 298.789556 
L 326.38134 299.254417 
L 327.271292 300.489621 
L 328.161244 299.588675 
L 329.051196 297.301752 
L 329.941148 301.609716 
L 330.8311 300.812318 
L 331.721053 301.709821 
L 333.500957 300.604238 
L 334.390909 301.087792 
L 335.280861 304.18564 
L 336.170813 299.767241 
L 337.060766 300.167661 
L 337.950718 299.983192 
L 338.84067 306.158719 
L 339.730622 299.147179 
L 340.620574 301.911507 
L 341.510526 298.832598 
L 342.400478 301.292675 
L 343.290431 299.452906 
L 344.180383 302.426544 
L 345.070335 301.595696 
L 345.960287 302.752931 
L 346.850239 299.740431 
L 347.740191 299.758632 
L 348.630144 300.216361 
L 349.520096 299.122583 
L 350.410048 302.810977 
L 351.3 301.415655 
L 352.189952 301.815829 
L 353.079904 299.303117 
L 353.969856 306.098705 
L 354.859809 302.210839 
L 355.749761 305.907595 
L 356.639713 300.328026 
L 357.529665 298.106037 
L 358.419617 297.605019 
L 359.309569 298.318791 
L 360.199522 298.659689 
L 361.089474 304.352399 
L 361.979426 299.585969 
L 362.869378 301.581677 
L 364.649282 298.724622 
L 365.539234 301.653251 
L 366.429187 303.98297 
L 367.319139 305.801587 
L 368.209091 300.215623 
L 369.099043 296.739491 
L 369.988995 302.935678 
L 370.878947 301.187897 
L 371.7689 300.051077 
L 372.658852 297.722342 
L 373.548804 300.394927 
L 374.438756 299.144474 
L 375.328708 299.854064 
L 376.21866 302.879846 
L 377.108612 301.439267 
L 377.998565 301.208558 
L 378.888517 300.250303 
L 379.778469 301.079921 
L 380.668421 303.179423 
L 381.558373 302.679636 
L 382.448325 302.93494 
L 383.338278 299.743629 
L 384.22823 303.21312 
L 386.008134 302.10729 
L 386.898086 299.954907 
L 387.788038 300.473879 
L 388.67799 298.64567 
L 392.237799 301.726792 
L 393.127751 302.050474 
L 394.017703 299.512182 
L 394.907656 302.827949 
L 395.797608 302.290775 
L 396.68756 303.777594 
L 397.577512 300.682206 
L 398.467464 300.225953 
L 399.357416 302.531077 
L 400.247368 302.431955 
L 401.137321 303.573695 
L 402.027273 301.419098 
L 402.917225 301.514284 
L 403.807177 302.541407 
L 404.697129 298.916962 
L 405.587081 298.274026 
L 406.477033 299.606138 
L 407.366986 303.10293 
L 408.256938 301.494115 
L 409.14689 299.46176 
L 410.036842 302.226334 
L 410.926794 301.019661 
L 411.816746 302.291759 
L 412.706699 299.801675 
L 413.596651 298.912781 
L 414.486603 301.405078 
L 415.376555 300.306628 
L 416.266507 299.513903 
L 417.156459 298.469072 
L 418.046411 297.675855 
L 418.936364 301.10009 
L 419.826316 306.333103 
L 420.716268 300.197176 
L 421.60622 302.483607 
L 422.496172 299.880628 
L 423.386124 300.514463 
L 424.276077 298.114645 
L 425.166029 299.79774 
L 426.055981 302.917231 
L 426.945933 302.667092 
L 427.835885 303.510483 
L 428.725837 300.201111 
L 429.615789 299.385759 
L 430.505742 301.203392 
L 431.395694 299.055929 
L 432.285646 305.553907 
L 433.175598 302.795974 
L 434.06555 295.118625 
L 434.955502 299.459301 
L 435.845455 300.18537 
L 435.845455 300.18537 
" clip-path="url(#p388d1ff023)" style="fill: none; stroke: #ff7f0e; stroke-width: 0.7; stroke-linecap: square"/>
   </g>
   <g id="patch_3">
    <path d="M 63 320.4 
L 63 43.2 
" style="fill: none; stroke: #000000; stroke-width: 0.8; stroke-linejoin: miter; stroke-linecap: square"/>
   </g>
   <g id="patch_4">
    <path d="M 453.6 320.4 
L 453.6 43.2 
" style="fill: none; stroke: #000000; stroke-width: 0.8; stroke-linejoin: miter; stroke-linecap: square"/>
   </g>
   <g id="patch_5">
    <path d="M 63 320.4 
L 453.6 320.4 
" style="fill: none; stroke: #000000; stroke-width: 0.8; stroke-linejoin: miter; stroke-linecap: square"/>
   </g>
   <g id="patch_6">
    <path d="M 63 43.2 
L 453.6 43.2 
" style="fill: none; stroke: #000000; stroke-width: 0.8; stroke-linejoin: miter; stroke-linecap: square"/>
   </g>
   <g id="text_16">
    <!-- Serial vs MPI + OpenMP - Time Comparison -->
    <g transform="translate(128.114063 37.2) scale(0.12 -0.12)">
     <defs>
      <path id="DejaVuSans-53" d="M 3425 4513 
L 3425 3897 
Q 3066 4069 2747 4153 
Q 2428 4238 2131 4238 
Q 1616 4238 1336 4038 
Q 1056 3838 1056 3469 
Q 1056 3159 1242 3001 
Q 1428 2844 1947 2747 
L 2328 2669 
Q 3034 2534 3370 2195 
Q 3706 1856 3706 1288 
Q 3706 609 3251 259 
Q 2797 -91 1919 -91 
Q 1588 -91 1214 -16 
Q 841 59 441 206 
L 441 856 
Q 825 641 1194 531 
Q 1563 422 1919 422 
Q 2459 422 2753 634 
Q 3047 847 3047 1241 
Q 3047 1584 2836 1778 
Q 2625 1972 2144 2069 
L 1759 2144 
Q 1053 2284 737 2584 
Q 422 2884 422 3419 
Q 422 4038 858 4394 
Q 1294 4750 2059 4750 
Q 2388 4750 2728 4690 
Q 3069 4631 3425 4513 
z
" transform="scale(0.015625)"/>
      <path id="DejaVuSans-72" d="M 2631 2963 
Q 2534 3019 2420 3045 
Q 2306 3072 2169 3072 
Q 1681 3072 1420 2755 
Q 1159 2438 1159 1844 
L 1159 0 
L 581 0 
L 581 3500 
L 1159 3500 
L 1159 2956 
Q 1341 3275 1631 3429 
Q 1922 3584 2338 3584 
Q 2397 3584 2469 3576 
Q 2541 3569 2628 3553 
L 2631 2963 
z
" transform="scale(0.015625)"/>
      <path id="DejaVuSans-6c" d="M 603 4863 
L 1178 4863 
L 1178 0 
L 603 0 
L 603 4863 
z
" transform="scale(0.015625)"/>
      <path id="DejaVuSans-76" d="M 191 3500 
L 800 3500 
L 1894 563 
L 2988 3500 
L 3597 3500 
L 2284 0 
L 1503 0 
L 191 3500 
z
" transform="scale(0.015625)"/>
      <path id="DejaVuSans-4d" d="M 628 4666 
L 1569 4666 
L 2759 1491 
L 3956 4666 
L 4897 4666 
L 4897 0 
L 4281 0 
L 4281 4097 
L 3078 897 
L 2444 897 
L 1241 4097 
L 1241 0 
L 628 0 
L 628 4666 
z
" transform="scale(0.015625)"/>
      <path id="DejaVuSans-49" d="M 628 4666 
L 1259 4666 
L 1259 0 
L 628 0 
L 628 4666 
z
" transform="scale(0.015625)"/>
      <path id="DejaVuSans-2b" d="M 2944 4013 
L 2944 2272 
L 4684 2272 
L 4684 1741 
L 2944 1741 
L 2944 0 
L 2419 0 
L 2419 1741 
L 678 1741 
L 678 2272 
L 2419 2272 
L 2419 4013 
L 2944 4013 
z
" transform="scale(0.015625)"/>
      <path id="DejaVuSans-4f" d="M 2522 4238 
Q 1834 4238 1429 3725 
Q 1025 3213 1025 2328 
Q 1025 1447 1429 934 
Q 1834 422 2522 422 
Q 3209 422 3611 934 
Q 4013 1447 4013 2328 
Q 4013 3213 3611 3725 
Q 3209 4238 2522 4238 
z
M 2522 4750 
Q 3503 4750 4090 4092 
Q 4678 3434 4678 2328 
Q 4678 1225 4090 567 
Q 3503 -91 2522 -91 
Q 1538 -91 948 565 
Q 359 1222 359 2328 
Q 359 3434 948 4092 
Q 1538 4750 2522 4750 
z
" transform="scale(0.015625)"/>
      <path id="DejaVuSans-70" d="M 1159 525 
L 1159 -1331 
L 581 -1331 
L 581 3500 
L 1159 3500 
L 1159 2969 
Q 1341 3281 1617 3432 
Q 1894 3584 2278 3584 
Q 2916 3584 3314 3078 
Q 3713 2572 3713 1747 
Q 3713 922 3314 415 
Q 2916 -91 2278 -91 
Q 1894 -91 1617 61 
Q 1341 213 1159 525 
z
M 3116 1747 
Q 3116 2381 2855 2742 
Q 2594 3103 2138 3103 
Q 1681 3103 1420 2742 
Q 1159 2381 1159 1747 
Q 1159 1113 1420 752 
Q 1681 391 2138 391 
Q 2594 391 2855 752 
Q 3116 1113 3116 1747 
z
" transform="scale(0.015625)"/>
      <path id="DejaVuSans-2d" d="M 313 2009 
L 1997 2009 
L 1997 1497 
L 313 1497 
L 313 2009 
z
" transform="scale(0.015625)"/>
      <path id="DejaVuSans-43" d="M 4122 4306 
L 4122 3641 
Q 3803 3938 3442 4084 
Q 3081 4231 2675 4231 
Q 1875 4231 1450 3742 
Q 1025 3253 1025 2328 
Q 1025 1406 1450 917 
Q 1875 428 2675 428 
Q 3081 428 3442 575 
Q 3803 722 4122 1019 
L 4122 359 
Q 3791 134 3420 21 
Q 3050 -91 2638 -91 
Q 1578 -91 968 557 
Q 359 1206 359 2328 
Q 359 3453 968 4101 
Q 1578 4750 2638 4750 
Q 3056 4750 3426 4639 
Q 3797 4528 4122 4306 
z
" transform="scale(0.015625)"/>
      <path id="DejaVuSans-6f" d="M 1959 3097 
Q 1497 3097 1228 2736 
Q 959 2375 959 1747 
Q 959 1119 1226 758 
Q 1494 397 1959 397 
Q 2419 397 2687 759 
Q 2956 1122 2956 1747 
Q 2956 2369 2687 2733 
Q 2419 3097 1959 3097 
z
M 1959 3584 
Q 2709 3584 3137 3096 
Q 3566 2609 3566 1747 
Q 3566 888 3137 398 
Q 2709 -91 1959 -91 
Q 1206 -91 779 398 
Q 353 888 353 1747 
Q 353 2609 779 3096 
Q 1206 3584 1959 3584 
z
" transform="scale(0.015625)"/>
     </defs>
     <use xlink:href="#DejaVuSans-53"/>
     <use xlink:href="#DejaVuSans-65" x="63.476562"/>
     <use xlink:href="#DejaVuSans-72" x="125"/>
     <use xlink:href="#DejaVuSans-69" x="166.113281"/>
     <use xlink:href="#DejaVuSans-61" x="193.896484"/>
     <use xlink:href="#DejaVuSans-6c" x="255.175781"/>
     <use xlink:href="#DejaVuSans-20" x="282.958984"/>
     <use xlink:href="#DejaVuSans-76" x="314.746094"/>
     <use xlink:href="#DejaVuSans-73" x="373.925781"/>
     <use xlink:href="#DejaVuSans-20" x="426.025391"/>
     <use xlink:href="#DejaVuSans-4d" x="457.8125"/>
     <use xlink:href="#DejaVuSans-50" x="544.091797"/>
     <use xlink:href="#DejaVuSans-49" x="604.394531"/>
     <use xlink:href="#DejaVuSans-20" x="633.886719"/>
     <use xlink:href="#DejaVuSans-2b" x="665.673828"/>
     <use xlink:href="#DejaVuSans-20" x="749.462891"/>
     <use xlink:href="#DejaVuSans-4f" x="781.25"/>
     <use xlink:href="#DejaVuSans-70" x="859.960938"/>
     <use xlink:href="#DejaVuSans-65" x="923.4375"/>
     <use xlink:href="#DejaVuSans-6e" x="984.960938"/>
     <use xlink:href="#DejaVuSans-4d" x="1048.339844"/>
     <use xlink:href="#DejaVuSans-50" x="1134.619141"/>
     <use xlink:href="#DejaVuSans-20" x="1194.921875"/>
     <use xlink:href="#DejaVuSans-2d" x="1226.708984"/>
     <use xlink:href="#DejaVuSans-20" x="1262.792969"/>
     <use xlink:href="#DejaVuSans-54" x="1294.580078"/>
     <use xlink:href="#DejaVuSans-69" x="1352.539062"/>
     <use xlink:href="#DejaVuSans-6d" x="1380.322266"/>
     <use xlink:href="#DejaVuSans-65" x="1477.734375"/>
     <use xlink:href="#DejaVuSans-20" x="1539.257812"/>
     <use xlink:href="#DejaVuSans-43" x="1571.044922"/>
     <use xlink:href="#DejaVuSans-6f" x="1640.869141"/>
     <use xlink:href="#DejaVuSans-6d" x="1702.050781"/>
     <use xlink:href="#DejaVuSans-70" x="1799.462891"/>
     <use xlink:href="#DejaVuSans-61" x="1862.939453"/>
     <use xlink:href="#DejaVuSans-72" x="1924.21875"/>
     <use xlink:href="#DejaVuSans-69" x="1965.332031"/>
     <use xlink:href="#DejaVuSans-73" x="1993.115234"/>
     <use xlink:href="#DejaVuSans-6f" x="2045.214844"/>
     <use xlink:href="#DejaVuSans-6e" x="2106.396484"/>
    </g>
   </g>
   <g id="legend_1">
    <g id="patch_7">
     <path d="M 340.8875 80.55625 
L 446.6 80.55625 
Q 448.6 80.55625 448.6 78.55625 
L 448.6 50.2 
Q 448.6 48.2 446.6 48.2 
L 340.8875 48.2 
Q 338.8875 48.2 338.8875 50.2 
L 338.8875 78.55625 
Q 338.8875 80.55625 340.8875 80.55625 
z
" style="fill: #ffffff; opacity: 0.8; stroke: #cccccc; stroke-linejoin: miter"/>
    </g>
    <g id="line2d_16">
     <path d="M 342.8875 56.298437 
L 352.8875 56.298437 
L 362.8875 56.298437 
" style="fill: none; stroke: #1f77b4; stroke-width: 0.7; stroke-linecap: square"/>
    </g>
    <g id="text_17">
     <!-- Serial -->
     <g transform="translate(370.8875 59.798437) scale(0.1 -0.1)">
      <use xlink:href="#DejaVuSans-53"/>
      <use xlink:href="#DejaVuSans-65" x="63.476562"/>
      <use xlink:href="#DejaVuSans-72" x="125"/>
      <use xlink:href="#DejaVuSans-69" x="166.113281"/>
      <use xlink:href="#DejaVuSans-61" x="193.896484"/>
      <use xlink:href="#DejaVuSans-6c" x="255.175781"/>
     </g>
    </g>
    <g id="line2d_17">
     <path d="M 342.8875 70.976562 
L 352.8875 70.976562 
L 362.8875 70.976562 
" style="fill: none; stroke: #ff7f0e; stroke-width: 0.7; stroke-linecap: square"/>
    </g>
    <g id="text_18">
     <!-- MPI + OpenMP -->
     <g transform="translate(370.8875 74.476562) scale(0.1 -0.1)">
      <use xlink:href="#DejaVuSans-4d"/>
      <use xlink:href="#DejaVuSans-50" x="86.279297"/>
      <use xlink:href="#DejaVuSans-49" x="146.582031"/>
      <use xlink:href="#DejaVuSans-20" x="176.074219"/>
      <use xlink:href="#DejaVuSans-2b" x="207.861328"/>
      <use xlink:href="#DejaVuSans-20" x="291.650391"/>
      <use xlink:href="#DejaVuSans-4f" x="323.4375"/>
      <use xlink:href="#DejaVuSans-70" x="402.148438"/>
      <use xlink:href="#DejaVuSans-65" x="465.625"/>
      <use xlink:href="#DejaVuSans-6e" x="527.148438"/>
      <use xlink:href="#DejaVuSans-4d" x="590.527344"/>
      <use xlink:href="#DejaVuSans-50" x="676.806641"/>
     </g>
    </g>
   </g>
  </g>
 </g>
 <defs>
  <clipPath id="p388d1ff023">
   <rect x="63" y="43.2" width="390.6" height="277.2"/>
  </clipPath>
 </defs>
</svg>
